<svg width="70" height="48" viewBox="0 0 70 48" fill="none" xmlns="http://www.w3.org/2000/svg">
<rect width="70" height="48" rx="4" fill="#F3FBFF"/>
<path d="M30.4714 35.5376L30.9005 32.8127L29.9448 32.7905H25.3815L28.5528 12.6822C28.5625 12.6215 28.5946 12.5649 28.6414 12.5247C28.6881 12.4845 28.7481 12.4623 28.8104 12.4623H36.5049C39.0594 12.4623 40.8221 12.9939 41.7426 14.0431C42.174 14.5353 42.4488 15.0496 42.5818 15.6156C42.7211 16.2095 42.7237 16.9191 42.5874 17.7845L42.5775 17.8477V18.4022L43.0092 18.6467C43.3726 18.8394 43.6611 19.0601 43.8826 19.3128C44.2519 19.7336 44.4907 20.2684 44.5915 20.9025C44.6956 21.5547 44.6612 22.3307 44.4907 23.2092C44.2937 24.2199 43.9754 25.1 43.5457 25.8203C43.1502 26.4839 42.6465 27.0342 42.0486 27.4609C41.4776 27.8661 40.7992 28.1738 40.0322 28.3707C39.2889 28.5641 38.4416 28.6619 37.5122 28.6619H36.9134C36.4853 28.6619 36.0692 28.8161 35.7429 29.0926C35.4156 29.3748 35.1988 29.7602 35.1325 30.1819L35.0874 30.4272L34.3294 35.23L34.2949 35.4064C34.2859 35.4623 34.2703 35.4902 34.2474 35.5091C34.2269 35.5261 34.1974 35.5376 34.1686 35.5376H30.4714Z" fill="#253B80"/>
<path d="M43.4157 17.9128C43.3928 18.0596 43.3666 18.2097 43.3371 18.3639C42.3222 23.5737 38.8508 25.3735 34.4169 25.3735H32.1595C31.6173 25.3735 31.1604 25.7672 31.0759 26.3021L29.92 33.6325L29.5927 35.7102C29.5377 36.0613 29.8085 36.378 30.1627 36.378H34.1668C34.641 36.378 35.0436 36.0335 35.1182 35.5659L35.1577 35.3624L35.9116 30.5783L35.9601 30.316C36.0337 29.8468 36.4373 29.5022 36.9114 29.5022H37.5103C41.3895 29.5022 44.4264 27.9272 45.314 23.3695C45.6848 21.4655 45.4928 19.8758 44.5116 18.7577C44.2148 18.4205 43.8465 18.1408 43.4157 17.9128Z" fill="#179BD7"/>
<path d="M42.3523 17.4883C42.1974 17.4431 42.0373 17.4021 41.8731 17.3652C41.7083 17.3291 41.5393 17.2971 41.3655 17.2693C40.7567 17.1708 40.0899 17.1241 39.3753 17.1241H33.3445C33.1959 17.1241 33.055 17.1577 32.9286 17.2184C32.6505 17.3521 32.4438 17.6154 32.3938 17.9378L31.1106 26.0638L31.0738 26.3009C31.1583 25.766 31.6152 25.3723 32.1574 25.3723H34.4149C38.8487 25.3723 42.3204 23.5717 43.3351 18.3627C43.3653 18.2085 43.3908 18.0584 43.4137 17.9116C43.157 17.7754 42.8788 17.6589 42.5794 17.5596C42.5058 17.535 42.4295 17.5112 42.3523 17.4883Z" fill="#222D65"/>
<path d="M32.3973 17.9383C32.4473 17.616 32.6542 17.3526 32.9321 17.2197C33.0594 17.159 33.1997 17.1254 33.348 17.1254H39.3791C40.0936 17.1254 40.7604 17.1722 41.369 17.2706C41.543 17.2985 41.7121 17.3305 41.8769 17.3666C42.041 17.4035 42.2009 17.4445 42.356 17.4896C42.433 17.5126 42.5093 17.5364 42.5839 17.5602C42.8833 17.6594 43.1615 17.7767 43.4181 17.9121C43.7202 15.9868 43.4158 14.676 42.3749 13.489C41.2273 12.1822 39.1559 11.6228 36.5055 11.6228H28.8109C28.2694 11.6228 27.8078 12.0165 27.724 12.5522L24.5191 32.8672C24.4559 33.2691 24.7659 33.6318 25.1711 33.6318H29.9217L31.1144 26.0643L32.3973 17.9383Z" fill="#253B80"/>
</svg>
